<svg width="24" height="24" xmlns="http://www.w3.org/2000/svg">

    <g>
        <title>background</title>
        <rect fill="none" id="canvas_background" height="402" width="582" y="-1" x="-1"/>
    </g>
    <g>
        <title>Layer 1</title>
        <path id="svg_1" fill="#94A4B8"
              d="m16,10.193666c1.66,0 2.99,-1.816412 2.99,-4.066594c0,-2.250182 -1.33,-4.066594 -2.99,-4.066594c-1.66,0 -3,1.816412 -3,4.066594c0,2.250182 1.34,4.066594 3,4.066594zm-8,0c1.66,0 2.99,-1.816412 2.99,-4.066594c0,-2.250182 -1.33,-4.066594 -2.99,-4.066594c-1.66,0 -3,1.816412 -3,4.066594c0,2.250182 1.34,4.066594 3,4.066594zm0,2.711063c-2.33,0 -7,1.585971 -7,4.74436l0,3.388828l14,0l0,-3.388828c0,-3.158389 -4.67,-4.74436 -7,-4.74436zm8,0c-0.29,0 -0.62,0.027111 -0.97,0.067776c1.160001,1.138647 1.97,2.670398 1.97,4.676584l0,3.388828l6,0l0,-3.388828c0,-3.158389 -4.67,-4.74436 -7,-4.74436z"/>
    </g>
</svg>