<svg id="Layer_1" data-name="Layer 1" xmlns="http://www.w3.org/2000/svg" viewBox="0 0 512 512">
    <title>magnifier-outline</title>
    <path d="M453.88,58.13Q512,116.24,512,198.41q0,82.42-58.12,140.55Q403.68,389.15,333.41,396q-69.49,6.87-127.61-30.65a27.28,27.28,0,0,1-3.7,4.23l-130,130A40.72,40.72,0,0,1,42.27,512a40.69,40.69,0,0,1-29.85-12.41,42.09,42.09,0,0,1,0-59.71l130-130a27,27,0,0,1,4.23-3.7Q109.11,248.07,116,178.59,122.85,108.32,173,58.13,231.16,0,313.33,0,395.76,0,453.88,58.13Zm-33,247.81q44.39-44.39,44.38-107.52,0-62.88-44.38-107.27Q376.47,46.51,313.33,46.5q-62.88,0-107.26,44.64-44.65,44.39-44.65,107.27,0,63.15,44.65,107.52,44.39,44.38,107.26,44.38Q376.47,350.32,420.85,305.93ZM231.7,111.49q34.61-32.23,81.63-32.23,47.29,0,81.9,32.23l-25.36,25.36q-23.78-21.66-56.54-21.67-32.49,0-56.27,21.67Z"/>
</svg>